<?xml version="1.0" encoding="utf-8"?>
<!-- Generator: Adobe Illustrator 28.3.0, SVG Export Plug-In . SVG Version: 6.00 Build 0)  -->
<svg version="1.1" id="katman_1" xmlns="http://www.w3.org/2000/svg" xmlns:xlink="http://www.w3.org/1999/xlink" x="0px" y="0px"
	 viewBox="0 0 750 500" style="enable-background:new 0 0 750 500;" xml:space="preserve">
<style type="text/css">
	.st0{fill:none;}
	.st1{fill:#EDEDED;}
	.st2{fill:#EDEDED;stroke:#1E1F26;stroke-width:2;stroke-miterlimit:10;}
	.st3{fill:#1E1E1E;}
	.st4{enable-background:new    ;}
</style>
<g id="BACKGROUND">
	<line class="st0" x1="470.7" y1="595" x2="-29.3" y2="595"/>
</g>
<g id="OBJECTS">
	<g>
		<g>
			<path class="st1" d="M331.8,169v204.7c0,17-13.8,30.8-30.7,30.8H96.3c-17,0-30.8-13.8-30.8-30.8v-16.5h189.8
				c17,0,33.2-11.4,36.1-25.3l35.1-168.3c1.4-6.4-0.3-12.2-4.1-16.7C328.2,152.5,331.8,160.3,331.8,169z"/>
			<path class="st1" d="M25.1,309.8l32.4-149.2c2.7-12.4,17.6-22.4,33.3-22.4h188.9c15.7,0,26.2,10,23.5,22.4l-32.4,149.2
				c-2.7,12.4-17.6,22.4-33.3,22.4H48.6C32.9,332.2,22.4,322.2,25.1,309.8z"/>
			<path class="st2" d="M182.3,154.5"/>
			<path class="st3" d="M215.3,228.1l-63.4-42c-4.2-2.8-10-0.5-11.1,4.5l-18.7,84c-1.3,6,4.9,10.8,10.4,8l82.1-42
				C219.5,238.1,219.9,231.2,215.3,228.1z"/>
			<path class="st1" d="M735.3,169l-23.7,108.8c-7.8,35.9-39.6,61.6-76.4,61.6H331.8V169H735.3z"/>
			<rect x="342" y="200.6" class="st1" width="343.3" height="107.1"/>
			<g class="st4">
				<path class="st3" d="M425.9,223.5L413,293.1h-16.7l10.2-54.8H391l-10.2,54.8h-16.7l10.2-54.8h-5.9l2.8-14.8h5.9
					c2.3-8.6,6.3-15.1,11.8-19.4c4.8-3.8,10-5.6,15.6-5.6h4.6l-3,16.4c-3.9,0.1-6.7,0.6-8.4,1.6c-1.7,1-3,3.3-3.9,7H425.9z
					 M430.2,200.3l-2.8,15.3h-16.7l2.8-15.3H430.2z"/>
				<path class="st3" d="M469.6,200.3l-17.2,92.8h-16.7l17.2-92.8H469.6z"/>
				<path class="st3" d="M587.2,243.3c0,2.6-0.3,5.6-0.9,9.2l-7.5,40.6h-16.7l7.2-38.6c0.5-2.8,0.8-5.1,0.8-6.6
					c0-7.6-3.5-11.4-10.5-11.4c-5,0-9.3,2.2-12.8,6.5c-2.2,2.7-3.9,7.4-5.1,14.2l-6.6,36h-16.7l7.2-38.6c0.4-2.1,0.6-4,0.6-5.8
					c0-3.8-0.9-6.8-2.8-9c-1.8-2.2-4.6-3.3-8.4-3.3c-2.9,0-5.5,0.6-7.6,1.9c-2.1,1.3-3.8,3.1-5.1,5.5c-1.3,2.3-2.3,4.6-2.9,6.8
					c-0.7,2.2-1.3,4.8-1.8,7.7l-6.4,34.7h-16.7l12.9-69.6h15.3l-1.1,5.9h0.3c4.3-5.5,10.8-8.3,19.7-8.3c8.7,0,14.7,3.6,18.1,10.9
					c6.4-7.3,14.6-10.9,24.5-10.9c7.2,0,12.9,1.9,17.1,5.8C585.1,230.8,587.2,236.3,587.2,243.3z"/>
				<path class="st3" d="M678.3,251.2c0,11.8-4.5,22.1-13.4,30.9c-8.9,8.8-19.3,13.2-31,13.2c-8.9,0-16.2-2.9-22.1-8.6
					c-5.9-5.7-8.8-13-8.8-21.9c0-11.4,4.6-21.5,13.7-30.4s19.5-13.4,30.9-13.4c8.8,0,16.1,2.8,22,8.5
					C675.4,235.2,678.3,242.4,678.3,251.2z M661.2,254.1c0-4.9-1.5-9.1-4.6-12.5s-7-5.1-11.9-5.1c-5.8,0-11,2.2-15.8,6.6
					s-7.7,9.5-8.8,15.4c-0.3,1.5-0.4,3-0.4,4.5c0,5,1.5,9.1,4.6,12.4c3.1,3.2,7.1,4.8,12.2,4.8c6.6,0,12.4-2.7,17.2-8
					C658.8,266.8,661.2,260.8,661.2,254.1z"/>
			</g>
			<path class="st1" d="M64.6,355.2H629c4.2,0,7.6,3.4,7.6,7.6v49.7c0,4.2-3.4,7.6-7.6,7.6H64.6c-4.2,0-7.6-3.4-7.6-7.6v-49.7
				C57,358.6,60.4,355.2,64.6,355.2z"/>
			<g class="st4">
				<path class="st3" d="M391.9,406.8l-9.8-36.8c-0.2-0.7,0.4-1.5,1.1-1.5h2.7c0.5,0,1,0.4,1.2,0.9l5.6,24.1
					c0.2,0.9,0.4,1.8,0.6,2.6c0.3,1.2,2,1.2,2.3,0c0.2-1,0.4-1.6,0.5-1.9l7-24.9c0.1-0.5,0.6-0.9,1.1-0.9h4.3c0.5,0,1,0.4,1.1,0.9
					l5.3,18.6c0.7,2.7,1.4,5.3,1.9,7.8c0.3,1.2,2,1.2,2.3,0c0.2-0.8,0.4-1.7,0.6-2.6l5.7-23.7c0.1-0.5,0.6-0.9,1.1-0.9h2.6
					c0.8,0,1.3,0.7,1.1,1.5l-9.8,35.9c-0.1,0.5-0.6,0.9-1.1,0.9h-3.1c-0.5,0-1-0.4-1.1-0.9l-7.8-28.2c0,0,0,0,0-0.1
					c-0.3-1.2-2-1.1-2.3,0c0,0,0,0,0,0.1l-7.9,28.3c-0.1,0.5-0.6,0.9-1.1,0.9h-4.3V406.8z"/>
				<path class="st3" d="M440.4,403.5l12.8-33.4c0.4-0.9,1.3-1.5,2.3-1.5h2.1c1,0,1.9,0.6,2.2,1.5l13.7,33.4
					c0.6,1.6-0.5,3.3-2.2,3.3h-0.5c-1,0-1.9-0.6-2.3-1.6l-3.2-8.5c-0.4-0.9-1.3-1.6-2.3-1.6h-12.6c-1,0-1.9,0.6-2.3,1.6l-3,8.4
					c-0.3,1-1.3,1.6-2.3,1.6h-0.2C441,406.8,439.8,405.1,440.4,403.5z M453.8,391.1h6.1c1.7,0,2.9-1.7,2.3-3.3l-2.7-7.3
					c-0.1-0.3-0.2-0.5-0.3-0.8c-0.8-2.1-3.8-2.1-4.5,0c0,0,0,0,0,0.1l-3,8C451,389.4,452.1,391.1,453.8,391.1z"/>
				<path class="st3" d="M494.7,404.5v-29.2c0-1.2-1-2.3-2.3-2.3h-8.1c-1.2,0-2.3-1-2.3-2.3l0,0c0-1.2,1-2.3,2.3-2.3h25.8
					c1.2,0,2.3,1,2.3,2.3l0,0c0,1.2-1,2.3-2.3,2.3H502c-1.2,0-2.3,1-2.3,2.3v29.2c0,1.2-1,2.3-2.3,2.3h-0.6
					C495.7,406.8,494.7,405.8,494.7,404.5z"/>
				<path class="st3" d="M557.1,394L557.1,394c1.5,0.4,2.3,2,1.7,3.4c-1.1,2.8-2.7,5-4.8,6.7c-2.8,2.2-6.2,3.3-10.1,3.3
					c-4.1,0-7.5-0.9-10-2.5c-2.5-1.7-4.5-4.1-5.8-7.3c-1.3-3.2-2-6.6-2-10.3c0-4,0.8-7.5,2.3-10.5c1.5-3,3.6-5.2,6.5-6.7
					c2.9-1.5,6-2.3,9.3-2.3c3.9,0,7.1,1,9.7,3c1.9,1.4,3.3,3.2,4.3,5.4c0.7,1.5-0.2,3.2-1.7,3.6l0,0c-1.2,0.3-2.4-0.3-2.9-1.4
					c-0.8-1.8-1.9-3.2-3.1-4.1c-1.7-1.3-3.9-1.9-6.4-1.9c-3,0-5.4,0.7-7.4,2.1s-3.3,3.3-4.2,5.6c-0.8,2.4-1.2,4.9-1.2,7.4
					c0,3.3,0.4,6.1,1.4,8.5c1.6,3.8,4.2,6,8.4,7c0.1,0,0.2,0,0.4,0.1c3.9,0.4,6.8-0.3,9.3-2.3c1.5-1.3,2.6-3,3.4-5.1
					C554.5,394.3,555.8,393.6,557.1,394z"/>
				<path class="st3" d="M575.8,404.2v-33.2c0-1.4,1.1-2.5,2.5-2.5l0,0c1.4,0,2.5,1.1,2.5,2.5v10.6c0,1.4,1.1,2.5,2.5,2.5h14.8
					c1.4,0,2.5-1.1,2.5-2.5v-10.6c0-1.4,1.1-2.5,2.5-2.5l0,0c1.4,0,2.5,1.1,2.5,2.5v33.2c0,1.4-1.1,2.5-2.5,2.5l0,0
					c-1.4,0-2.5-1.1-2.5-2.5v-13c0-1.4-1.1-2.5-2.5-2.5h-14.8c-1.4,0-2.5,1.1-2.5,2.5v13c0,1.4-1.1,2.5-2.5,2.5l0,0
					C577,406.8,575.8,405.6,575.8,404.2z"/>
			</g>
		</g>
	</g>
</g>
</svg>
