<?xml version="1.0" encoding="utf-8"?>
<!-- Generator: Adobe Illustrator 28.3.0, SVG Export Plug-In . SVG Version: 6.00 Build 0)  -->
<svg version="1.1" id="katman_1" xmlns="http://www.w3.org/2000/svg" xmlns:xlink="http://www.w3.org/1999/xlink" x="0px" y="0px"
	 viewBox="0 0 500 500" style="enable-background:new 0 0 500 500;" xml:space="preserve">
<style type="text/css">
	.st0{fill:#E2E2E2;stroke:#262626;stroke-linecap:round;stroke-linejoin:round;stroke-miterlimit:10;}
	.st1{fill:#A40D42;}
	.st2{fill:#FFFFFF;}
	.st3{fill:#262626;}
</style>
<path class="st0" d="M483.8,517.5H9.6c-18.6,0-33.7-15.1-33.7-33.7v-468C-24.1-2.8-9-17.9,9.6-17.9h474.1
	c18.6,0,33.7,15.1,33.7,33.7v468C517.5,502.4,502.4,517.5,483.8,517.5z"/>
<g id="OBJECTS">
	<g>
		<g>
			<path class="st1" d="M325.9,332.4c-11,71.9-140.7,71.9-151.8,0v-37.3h151.8V332.4z"/>
			<path class="st2" d="M322.6,295.1H177.4C198.9,350.7,301.1,350.7,322.6,295.1z"/>
			<g>
				<path class="st3" d="M338.3,333.3c-0.2,1.6-0.5,3.1-0.8,4.7c-0.3,1.4-0.6,2.5-0.9,3.8c-0.3,1.2-0.7,2.5-1.1,3.7
					s-0.9,2.4-1.3,3.7c-1.9,4.8-4.3,9.5-7.2,13.7c-5.8,8.6-13.5,15.6-21.9,20.9s-17.5,9-26.8,11.4s-18.8,3.6-28.3,3.6
					c-9.5,0-19-1.2-28.3-3.6s-18.4-6.1-26.8-11.4c-8.4-5.3-16.1-12.3-21.9-20.9c-5.9-8.5-9.7-18.5-11.2-28.6
					c-0.1-0.6-0.1-1.2-0.1-1.8v-0.1l-0.1-37.3l0,0c0-6.9,5.6-12.5,12.5-12.5l0,0l151.8-0.4l0,0h0.5c7,0.1,12.5,5.9,12.3,12.9
					l-0.2,9.6l-0.1,9.6L338.3,333.3z M313.5,331.4l-0.1-18.2l-0.1-9.1l-0.2-9.1l12.9,12.9l0,0l-151.8-0.4l12.5-12.5l0,0l-0.1,37.3
					l-0.1-1.9c1,6.7,3.4,12.9,7.1,18.4c3.7,5.5,8.8,10.1,14.7,13.9c11.9,7.5,26.9,11.1,41.8,11.1s29.9-3.7,41.8-11.2
					c5.9-3.7,11-8.4,14.7-13.9c1.9-2.7,3.4-5.6,4.6-8.7c0.3-0.8,0.6-1.5,0.8-2.3c0.2-0.8,0.5-1.6,0.7-2.4l0.6-2.4
					C313.2,332.5,313.3,332,313.5,331.4z"/>
			</g>
		</g>
		<g>
			<g>
				<path class="st3" d="M170.7,247.8l-71.3-33.3H132l-71.3,33.3c-2.4,1-5.2,0-6.2-2.2c-0.7-1.5-0.5-3.3,0.3-4.6l44.5-65
					c6.2-8.9,18.6-11.3,27.5-5.2c2.1,1.4,3.8,3.3,5.2,5.2l44.5,65c1.5,2.1,0.9,5-1.2,6.5C174,248.3,172.1,248.5,170.7,247.8z"/>
			</g>
		</g>
	</g>
</g>
<g>
	<g>
		<path class="st3" d="M439.2,247.8l-71.3-33.3h32.7l-71.3,33.3c-2.4,1-5.2,0-6.2-2.2c-0.7-1.5-0.5-3.3,0.3-4.6l44.5-65
			c6.2-8.9,18.6-11.3,27.5-5.2c2.1,1.4,3.8,3.3,5.2,5.2l44.5,65c1.5,2.1,0.9,5-1.2,6.5C442.5,248.3,440.6,248.5,439.2,247.8z"/>
	</g>
</g>
</svg>
